<?xml version="1.0" encoding="UTF-8"?>
<mxfile host="app.diagrams.net" agent="Mozilla/5.0 (Windows NT 10.0; Win64; x64) AppleWebKit/537.36 (KHTML, like Gecko) Chrome/138.0.0.0 YaBrowser/25.8.0.0 Safari/537.36" version="28.2.8">
  <diagram name="Страница — 1" id="-Te7vVL8Wwzz7nEGKA-p">
    <mxGraphModel dx="1366" dy="767" grid="1" gridSize="10" guides="1" tooltips="1" connect="1" arrows="1" fold="1" page="1" pageScale="1" pageWidth="1169" pageHeight="827" math="0" shadow="0">
      <root>
        <mxCell id="0" />
        <mxCell id="1" parent="0" />
        <mxCell id="ewFTUpQ_ITNDuzYWQgGJ-1" value="Выдача IT-оборудования" style="swimlane;html=1;childLayout=stackLayout;resizeParent=1;resizeParentMax=0;horizontal=1;startSize=20;horizontalStack=0;whiteSpace=wrap;fontSize=9;" parent="1" vertex="1">
          <mxGeometry x="40" y="30" width="1520" height="830" as="geometry" />
        </mxCell>
        <mxCell id="ewFTUpQ_ITNDuzYWQgGJ-15" value="" style="dashed=1;dashPattern=8 4;endArrow=blockThin;endFill=1;startArrow=oval;startFill=0;endSize=6;startSize=4;html=1;rounded=0;exitX=0.5;exitY=1;exitDx=0;exitDy=0;exitPerimeter=0;entryX=0.5;entryY=0;entryDx=0;entryDy=0;entryPerimeter=0;fontSize=9;" parent="ewFTUpQ_ITNDuzYWQgGJ-1" source="ewFTUpQ_ITNDuzYWQgGJ-19" target="ewFTUpQ_ITNDuzYWQgGJ-14" edge="1">
          <mxGeometry width="160" relative="1" as="geometry">
            <mxPoint x="178.7500000000001" y="138.5" as="sourcePoint" />
            <mxPoint x="300" y="270" as="targetPoint" />
            <Array as="points">
              <mxPoint x="180" y="230" />
              <mxPoint x="69" y="230" />
            </Array>
          </mxGeometry>
        </mxCell>
        <mxCell id="ewFTUpQ_ITNDuzYWQgGJ-24" value="" style="dashed=1;dashPattern=8 4;endArrow=blockThin;endFill=1;startArrow=oval;startFill=0;endSize=6;startSize=4;html=1;rounded=0;exitX=0.5;exitY=1;exitDx=0;exitDy=0;exitPerimeter=0;entryX=0.5;entryY=0;entryDx=0;entryDy=0;entryPerimeter=0;fontSize=9;" parent="ewFTUpQ_ITNDuzYWQgGJ-1" source="ewFTUpQ_ITNDuzYWQgGJ-22" target="ewFTUpQ_ITNDuzYWQgGJ-21" edge="1">
          <mxGeometry width="160" relative="1" as="geometry">
            <mxPoint x="140" y="270" as="sourcePoint" />
            <mxPoint x="300" y="270" as="targetPoint" />
            <Array as="points">
              <mxPoint x="563" y="420" />
              <mxPoint x="70" y="420" />
            </Array>
          </mxGeometry>
        </mxCell>
        <mxCell id="ewFTUpQ_ITNDuzYWQgGJ-2" value="Пользователь" style="swimlane;html=1;startSize=20;horizontal=0;fontSize=9;" parent="ewFTUpQ_ITNDuzYWQgGJ-1" vertex="1">
          <mxGeometry y="20" width="1520" height="190" as="geometry" />
        </mxCell>
        <mxCell id="ewFTUpQ_ITNDuzYWQgGJ-7" value="&lt;font&gt;Пользователю&lt;/font&gt;&lt;div&gt;&lt;font&gt;понадобилось&amp;nbsp;&lt;/font&gt;&lt;/div&gt;&lt;div&gt;&lt;font&gt;IT-оборудование&lt;/font&gt;&lt;/div&gt;" style="points=[[0.145,0.145,0],[0.5,0,0],[0.855,0.145,0],[1,0.5,0],[0.855,0.855,0],[0.5,1,0],[0.145,0.855,0],[0,0.5,0]];shape=mxgraph.bpmn.event;html=1;verticalLabelPosition=bottom;labelBackgroundColor=#ffffff;verticalAlign=top;align=center;perimeter=ellipsePerimeter;outlineConnect=0;aspect=fixed;outline=standard;symbol=general;fontSize=9;" parent="ewFTUpQ_ITNDuzYWQgGJ-2" vertex="1">
          <mxGeometry x="44" y="61" width="50" height="50" as="geometry" />
        </mxCell>
        <mxCell id="ewFTUpQ_ITNDuzYWQgGJ-11" value="" style="edgeStyle=elbowEdgeStyle;fontSize=9;html=1;endArrow=blockThin;endFill=1;rounded=0;exitX=1;exitY=0.5;exitDx=0;exitDy=0;exitPerimeter=0;entryX=0;entryY=0.5;entryDx=0;entryDy=0;entryPerimeter=0;" parent="ewFTUpQ_ITNDuzYWQgGJ-2" source="ewFTUpQ_ITNDuzYWQgGJ-7" target="ewFTUpQ_ITNDuzYWQgGJ-19" edge="1">
          <mxGeometry width="160" relative="1" as="geometry">
            <mxPoint x="130" y="320" as="sourcePoint" />
            <mxPoint x="130.0000000000001" y="86" as="targetPoint" />
          </mxGeometry>
        </mxCell>
        <mxCell id="ewFTUpQ_ITNDuzYWQgGJ-13" value="" style="edgeStyle=elbowEdgeStyle;fontSize=9;html=1;endArrow=blockThin;endFill=1;rounded=0;exitX=1;exitY=0.5;exitDx=0;exitDy=0;exitPerimeter=0;entryX=0;entryY=0.5;entryDx=0;entryDy=0;entryPerimeter=0;" parent="ewFTUpQ_ITNDuzYWQgGJ-2" source="ewFTUpQ_ITNDuzYWQgGJ-19" target="ewFTUpQ_ITNDuzYWQgGJ-32" edge="1">
          <mxGeometry width="160" relative="1" as="geometry">
            <mxPoint x="227.5000000000001" y="86" as="sourcePoint" />
            <mxPoint x="260.9999999999998" y="86.75" as="targetPoint" />
          </mxGeometry>
        </mxCell>
        <mxCell id="ewFTUpQ_ITNDuzYWQgGJ-19" value="&lt;font&gt;Обратиться&amp;nbsp;&lt;/font&gt;&lt;div&gt;&lt;font&gt;по почте/телефону&amp;nbsp;&lt;/font&gt;&lt;/div&gt;&lt;div&gt;&lt;font&gt;в ТП&lt;/font&gt;&lt;/div&gt;" style="points=[[0.25,0,0],[0.5,0,0],[0.75,0,0],[1,0.25,0],[1,0.5,0],[1,0.75,0],[0.75,1,0],[0.5,1,0],[0.25,1,0],[0,0.75,0],[0,0.5,0],[0,0.25,0]];shape=mxgraph.bpmn.task2;whiteSpace=wrap;rectStyle=rounded;size=10;html=1;container=1;expand=0;collapsible=0;taskMarker=user;fontSize=9;" parent="ewFTUpQ_ITNDuzYWQgGJ-2" vertex="1">
          <mxGeometry x="129" y="54" width="100" height="65" as="geometry" />
        </mxCell>
        <mxCell id="ewFTUpQ_ITNDuzYWQgGJ-32" value="&lt;font&gt;Получить номер&lt;/font&gt;&lt;div&gt;&lt;font&gt;обращения&lt;/font&gt;&lt;/div&gt;" style="points=[[0.25,0,0],[0.5,0,0],[0.75,0,0],[1,0.25,0],[1,0.5,0],[1,0.75,0],[0.75,1,0],[0.5,1,0],[0.25,1,0],[0,0.75,0],[0,0.5,0],[0,0.25,0]];shape=mxgraph.bpmn.task2;whiteSpace=wrap;rectStyle=rounded;size=10;html=1;container=1;expand=0;collapsible=0;taskMarker=user;fontSize=9;" parent="ewFTUpQ_ITNDuzYWQgGJ-2" vertex="1">
          <mxGeometry x="270" y="53.5" width="100" height="65" as="geometry" />
        </mxCell>
        <mxCell id="ewFTUpQ_ITNDuzYWQgGJ-68" value="&lt;font&gt;Получить IT-оборудование от ТП&lt;/font&gt;" style="points=[[0.25,0,0],[0.5,0,0],[0.75,0,0],[1,0.25,0],[1,0.5,0],[1,0.75,0],[0.75,1,0],[0.5,1,0],[0.25,1,0],[0,0.75,0],[0,0.5,0],[0,0.25,0]];shape=mxgraph.bpmn.task2;whiteSpace=wrap;rectStyle=rounded;size=10;html=1;container=1;expand=0;collapsible=0;taskMarker=abstract;fontSize=9;" parent="ewFTUpQ_ITNDuzYWQgGJ-2" vertex="1">
          <mxGeometry x="860" y="45" width="100" height="65" as="geometry" />
        </mxCell>
        <mxCell id="ewFTUpQ_ITNDuzYWQgGJ-70" value="Выставить оценку сервису" style="points=[[0.25,0,0],[0.5,0,0],[0.75,0,0],[1,0.25,0],[1,0.5,0],[1,0.75,0],[0.75,1,0],[0.5,1,0],[0.25,1,0],[0,0.75,0],[0,0.5,0],[0,0.25,0]];shape=mxgraph.bpmn.task2;whiteSpace=wrap;rectStyle=rounded;size=10;html=1;container=1;expand=0;collapsible=0;taskMarker=user;fontSize=9;" parent="ewFTUpQ_ITNDuzYWQgGJ-2" vertex="1">
          <mxGeometry x="1010" y="45" width="100" height="65" as="geometry" />
        </mxCell>
        <mxCell id="ewFTUpQ_ITNDuzYWQgGJ-71" value="" style="edgeStyle=elbowEdgeStyle;fontSize=12;html=1;endArrow=blockThin;endFill=1;rounded=0;exitX=1;exitY=0.5;exitDx=0;exitDy=0;exitPerimeter=0;entryX=0;entryY=0.5;entryDx=0;entryDy=0;entryPerimeter=0;" parent="ewFTUpQ_ITNDuzYWQgGJ-2" source="ewFTUpQ_ITNDuzYWQgGJ-68" target="ewFTUpQ_ITNDuzYWQgGJ-70" edge="1">
          <mxGeometry width="160" relative="1" as="geometry">
            <mxPoint x="660" y="330" as="sourcePoint" />
            <mxPoint x="820" y="330" as="targetPoint" />
          </mxGeometry>
        </mxCell>
        <mxCell id="ewFTUpQ_ITNDuzYWQgGJ-72" value="&lt;font style=&quot;font-size: 9px;&quot;&gt;Ожидать&lt;/font&gt;&lt;div&gt;&lt;font style=&quot;font-size: 9px;&quot;&gt;доставку от ТП&lt;/font&gt;&lt;/div&gt;" style="points=[[0.145,0.145,0],[0.5,0,0],[0.855,0.145,0],[1,0.5,0],[0.855,0.855,0],[0.5,1,0],[0.145,0.855,0],[0,0.5,0]];shape=mxgraph.bpmn.event;html=1;verticalLabelPosition=bottom;labelBackgroundColor=#ffffff;verticalAlign=top;align=center;perimeter=ellipsePerimeter;outlineConnect=0;aspect=fixed;outline=catching;symbol=timer;" parent="ewFTUpQ_ITNDuzYWQgGJ-2" vertex="1">
          <mxGeometry x="720" y="61" width="50" height="50" as="geometry" />
        </mxCell>
        <mxCell id="ewFTUpQ_ITNDuzYWQgGJ-84" value="" style="points=[[0.145,0.145,0],[0.5,0,0],[0.855,0.145,0],[1,0.5,0],[0.855,0.855,0],[0.5,1,0],[0.145,0.855,0],[0,0.5,0]];shape=mxgraph.bpmn.event;html=1;verticalLabelPosition=bottom;labelBackgroundColor=#ffffff;verticalAlign=top;align=center;perimeter=ellipsePerimeter;outlineConnect=0;aspect=fixed;outline=end;symbol=terminate2;" parent="ewFTUpQ_ITNDuzYWQgGJ-2" vertex="1">
          <mxGeometry x="1160" y="52.5" width="50" height="50" as="geometry" />
        </mxCell>
        <mxCell id="ewFTUpQ_ITNDuzYWQgGJ-86" value="" style="edgeStyle=elbowEdgeStyle;fontSize=12;html=1;endArrow=blockThin;endFill=1;rounded=0;exitX=1;exitY=0.5;exitDx=0;exitDy=0;exitPerimeter=0;entryX=0;entryY=0.5;entryDx=0;entryDy=0;entryPerimeter=0;" parent="ewFTUpQ_ITNDuzYWQgGJ-2" source="ewFTUpQ_ITNDuzYWQgGJ-70" target="ewFTUpQ_ITNDuzYWQgGJ-84" edge="1">
          <mxGeometry width="160" relative="1" as="geometry">
            <mxPoint x="610" y="290" as="sourcePoint" />
            <mxPoint x="770" y="290" as="targetPoint" />
          </mxGeometry>
        </mxCell>
        <mxCell id="ewFTUpQ_ITNDuzYWQgGJ-103" value="&lt;font&gt;Отследить статус заказа по номеру обращения&lt;/font&gt;" style="points=[[0.25,0,0],[0.5,0,0],[0.75,0,0],[1,0.25,0],[1,0.5,0],[1,0.75,0],[0.75,1,0],[0.5,1,0],[0.25,1,0],[0,0.75,0],[0,0.5,0],[0,0.25,0]];shape=mxgraph.bpmn.task2;whiteSpace=wrap;rectStyle=rounded;size=10;html=1;container=1;expand=0;collapsible=0;taskMarker=abstract;fontSize=9;" parent="ewFTUpQ_ITNDuzYWQgGJ-2" vertex="1">
          <mxGeometry x="420" y="53.5" width="100" height="65" as="geometry" />
        </mxCell>
        <mxCell id="ewFTUpQ_ITNDuzYWQgGJ-104" value="" style="edgeStyle=elbowEdgeStyle;fontSize=12;html=1;endArrow=blockThin;endFill=1;rounded=0;exitX=1;exitY=0.5;exitDx=0;exitDy=0;exitPerimeter=0;entryX=0;entryY=0.5;entryDx=0;entryDy=0;entryPerimeter=0;" parent="ewFTUpQ_ITNDuzYWQgGJ-2" source="ewFTUpQ_ITNDuzYWQgGJ-32" target="ewFTUpQ_ITNDuzYWQgGJ-103" edge="1">
          <mxGeometry width="160" relative="1" as="geometry">
            <mxPoint x="610" y="420" as="sourcePoint" />
            <mxPoint x="770" y="420" as="targetPoint" />
          </mxGeometry>
        </mxCell>
        <mxCell id="ewFTUpQ_ITNDuzYWQgGJ-106" value="" style="edgeStyle=elbowEdgeStyle;fontSize=12;html=1;endArrow=blockThin;endFill=1;rounded=0;exitX=1;exitY=0.5;exitDx=0;exitDy=0;exitPerimeter=0;entryX=0.036;entryY=0.618;entryDx=0;entryDy=0;entryPerimeter=0;" parent="ewFTUpQ_ITNDuzYWQgGJ-2" source="ewFTUpQ_ITNDuzYWQgGJ-72" target="ewFTUpQ_ITNDuzYWQgGJ-68" edge="1">
          <mxGeometry width="160" relative="1" as="geometry">
            <mxPoint x="650" y="320" as="sourcePoint" />
            <mxPoint x="810" y="320" as="targetPoint" />
          </mxGeometry>
        </mxCell>
        <mxCell id="ewFTUpQ_ITNDuzYWQgGJ-108" value="&lt;font style=&quot;font-size: 9px;&quot;&gt;Передача оборудования&lt;/font&gt;" style="text;html=1;strokeColor=none;fillColor=none;align=center;verticalAlign=middle;whiteSpace=wrap;rounded=0;rotation=-90;" parent="ewFTUpQ_ITNDuzYWQgGJ-2" vertex="1">
          <mxGeometry x="852" y="138" width="80" height="30" as="geometry" />
        </mxCell>
        <mxCell id="ewFTUpQ_ITNDuzYWQgGJ-109" value="&lt;font&gt;Получить&amp;nbsp;&lt;/font&gt;&lt;div&gt;&lt;font&gt;уведомление о готовности&lt;/font&gt;&lt;/div&gt;" style="points=[[0.25,0,0],[0.5,0,0],[0.75,0,0],[1,0.25,0],[1,0.5,0],[1,0.75,0],[0.75,1,0],[0.5,1,0],[0.25,1,0],[0,0.75,0],[0,0.5,0],[0,0.25,0]];shape=mxgraph.bpmn.task2;whiteSpace=wrap;rectStyle=rounded;size=10;html=1;container=1;expand=0;collapsible=0;taskMarker=abstract;fontSize=9;" parent="ewFTUpQ_ITNDuzYWQgGJ-2" vertex="1">
          <mxGeometry x="570" y="54" width="100" height="65" as="geometry" />
        </mxCell>
        <mxCell id="ewFTUpQ_ITNDuzYWQgGJ-110" value="" style="edgeStyle=elbowEdgeStyle;fontSize=12;html=1;endArrow=blockThin;endFill=1;rounded=0;exitX=1;exitY=0.5;exitDx=0;exitDy=0;exitPerimeter=0;entryX=0;entryY=0.5;entryDx=0;entryDy=0;entryPerimeter=0;" parent="ewFTUpQ_ITNDuzYWQgGJ-2" source="ewFTUpQ_ITNDuzYWQgGJ-103" target="ewFTUpQ_ITNDuzYWQgGJ-109" edge="1">
          <mxGeometry width="160" relative="1" as="geometry">
            <mxPoint x="470" y="300" as="sourcePoint" />
            <mxPoint x="630" y="300" as="targetPoint" />
          </mxGeometry>
        </mxCell>
        <mxCell id="ewFTUpQ_ITNDuzYWQgGJ-111" value="" style="edgeStyle=elbowEdgeStyle;fontSize=12;html=1;endArrow=blockThin;endFill=1;rounded=0;exitX=1;exitY=0.5;exitDx=0;exitDy=0;exitPerimeter=0;entryX=0;entryY=0.5;entryDx=0;entryDy=0;entryPerimeter=0;" parent="ewFTUpQ_ITNDuzYWQgGJ-2" source="ewFTUpQ_ITNDuzYWQgGJ-109" target="ewFTUpQ_ITNDuzYWQgGJ-72" edge="1">
          <mxGeometry width="160" relative="1" as="geometry">
            <mxPoint x="470" y="300" as="sourcePoint" />
            <mxPoint x="630" y="300" as="targetPoint" />
          </mxGeometry>
        </mxCell>
        <mxCell id="ewFTUpQ_ITNDuzYWQgGJ-116" value="" style="html=1;shape=mxgraph.flowchart.annotation_2;align=left;labelPosition=right;" parent="ewFTUpQ_ITNDuzYWQgGJ-2" vertex="1">
          <mxGeometry x="200" y="10" width="50" height="35" as="geometry" />
        </mxCell>
        <mxCell id="ewFTUpQ_ITNDuzYWQgGJ-117" value="" style="edgeStyle=elbowEdgeStyle;fontSize=12;html=1;endFill=0;startFill=0;endSize=6;startSize=6;dashed=1;dashPattern=1 4;endArrow=none;startArrow=none;rounded=0;exitX=0.5;exitY=0;exitDx=0;exitDy=0;exitPerimeter=0;entryX=0.117;entryY=0.514;entryDx=0;entryDy=0;entryPerimeter=0;" parent="ewFTUpQ_ITNDuzYWQgGJ-2" source="ewFTUpQ_ITNDuzYWQgGJ-19" target="ewFTUpQ_ITNDuzYWQgGJ-116" edge="1">
          <mxGeometry width="160" relative="1" as="geometry">
            <mxPoint x="300" y="200" as="sourcePoint" />
            <mxPoint x="460" y="200" as="targetPoint" />
            <Array as="points">
              <mxPoint x="180" y="40" />
            </Array>
          </mxGeometry>
        </mxCell>
        <mxCell id="ewFTUpQ_ITNDuzYWQgGJ-118" value="&lt;font size=&quot;1&quot;&gt;Заявка оформляется в системе №1 через ТП&lt;/font&gt;" style="text;html=1;strokeColor=none;fillColor=none;align=left;verticalAlign=middle;whiteSpace=wrap;rounded=0;" parent="ewFTUpQ_ITNDuzYWQgGJ-2" vertex="1">
          <mxGeometry x="229" y="10" width="141" height="30" as="geometry" />
        </mxCell>
        <mxCell id="ewFTUpQ_ITNDuzYWQgGJ-5" value="ТП (1 линия)" style="swimlane;html=1;startSize=20;horizontal=0;fontSize=9;" parent="ewFTUpQ_ITNDuzYWQgGJ-1" vertex="1">
          <mxGeometry y="210" width="1520" height="180" as="geometry" />
        </mxCell>
        <mxCell id="ewFTUpQ_ITNDuzYWQgGJ-14" value="&lt;font&gt;Получить запрос&amp;nbsp;&lt;/font&gt;&lt;div&gt;&lt;font&gt;от пользователя&lt;/font&gt;&lt;/div&gt;" style="points=[[0.145,0.145,0],[0.5,0,0],[0.855,0.145,0],[1,0.5,0],[0.855,0.855,0],[0.5,1,0],[0.145,0.855,0],[0,0.5,0]];shape=mxgraph.bpmn.event;html=1;verticalLabelPosition=bottom;labelBackgroundColor=#ffffff;verticalAlign=top;align=center;perimeter=ellipsePerimeter;outlineConnect=0;aspect=fixed;outline=standard;symbol=message;fontSize=9;" parent="ewFTUpQ_ITNDuzYWQgGJ-5" vertex="1">
          <mxGeometry x="44" y="60" width="50" height="50" as="geometry" />
        </mxCell>
        <mxCell id="ewFTUpQ_ITNDuzYWQgGJ-22" value="&lt;font&gt;Система №2&lt;/font&gt;&lt;div&gt;&lt;font&gt;отправляет&amp;nbsp;&lt;/font&gt;&lt;/div&gt;&lt;div&gt;&lt;font&gt;уведомление&lt;/font&gt;&lt;/div&gt;&lt;div&gt;&lt;font&gt;снабжению&lt;/font&gt;&lt;/div&gt;" style="points=[[0.145,0.145,0],[0.5,0,0],[0.855,0.145,0],[1,0.5,0],[0.855,0.855,0],[0.5,1,0],[0.145,0.855,0],[0,0.5,0]];shape=mxgraph.bpmn.event;html=1;verticalLabelPosition=bottom;labelBackgroundColor=#ffffff;verticalAlign=top;align=center;perimeter=ellipsePerimeter;outlineConnect=0;aspect=fixed;outline=throwing;symbol=message;fontSize=9;" parent="ewFTUpQ_ITNDuzYWQgGJ-5" vertex="1">
          <mxGeometry x="538" y="61" width="50" height="50" as="geometry" />
        </mxCell>
        <mxCell id="ewFTUpQ_ITNDuzYWQgGJ-63" value="&lt;font&gt;Получить IT-оборудование от логистики&lt;/font&gt;" style="points=[[0.25,0,0],[0.5,0,0],[0.75,0,0],[1,0.25,0],[1,0.5,0],[1,0.75,0],[0.75,1,0],[0.5,1,0],[0.25,1,0],[0,0.75,0],[0,0.5,0],[0,0.25,0]];shape=mxgraph.bpmn.task2;whiteSpace=wrap;rectStyle=rounded;size=10;html=1;container=1;expand=0;collapsible=0;taskMarker=abstract;fontSize=9;" parent="ewFTUpQ_ITNDuzYWQgGJ-5" vertex="1">
          <mxGeometry x="700" y="54" width="100" height="65" as="geometry" />
        </mxCell>
        <mxCell id="ewFTUpQ_ITNDuzYWQgGJ-64" value="&lt;font&gt;Передать&amp;nbsp;&lt;/font&gt;&lt;div&gt;&lt;font&gt;IT-оборудование пользователю&lt;/font&gt;&lt;/div&gt;" style="points=[[0.25,0,0],[0.5,0,0],[0.75,0,0],[1,0.25,0],[1,0.5,0],[1,0.75,0],[0.75,1,0],[0.5,1,0],[0.25,1,0],[0,0.75,0],[0,0.5,0],[0,0.25,0]];shape=mxgraph.bpmn.task2;whiteSpace=wrap;rectStyle=rounded;size=10;html=1;container=1;expand=0;collapsible=0;taskMarker=manual;fontSize=9;" parent="ewFTUpQ_ITNDuzYWQgGJ-5" vertex="1">
          <mxGeometry x="860" y="55" width="100.5" height="65" as="geometry" />
        </mxCell>
        <mxCell id="ewFTUpQ_ITNDuzYWQgGJ-65" value="" style="edgeStyle=elbowEdgeStyle;fontSize=9;html=1;endArrow=blockThin;endFill=1;rounded=0;exitX=1;exitY=0.5;exitDx=0;exitDy=0;exitPerimeter=0;entryX=0;entryY=0.5;entryDx=0;entryDy=0;entryPerimeter=0;" parent="ewFTUpQ_ITNDuzYWQgGJ-5" source="ewFTUpQ_ITNDuzYWQgGJ-63" target="ewFTUpQ_ITNDuzYWQgGJ-64" edge="1">
          <mxGeometry width="160" relative="1" as="geometry">
            <mxPoint x="430" y="140" as="sourcePoint" />
            <mxPoint x="590" y="140" as="targetPoint" />
          </mxGeometry>
        </mxCell>
        <mxCell id="ewFTUpQ_ITNDuzYWQgGJ-66" value="&lt;font&gt;Закрыть&amp;nbsp;&lt;/font&gt;&lt;div&gt;&lt;font&gt;заявку&amp;nbsp;&lt;/font&gt;&lt;/div&gt;&lt;div&gt;&lt;font&gt;в системе №1 и системе №2&lt;/font&gt;&lt;/div&gt;" style="points=[[0.25,0,0],[0.5,0,0],[0.75,0,0],[1,0.25,0],[1,0.5,0],[1,0.75,0],[0.75,1,0],[0.5,1,0],[0.25,1,0],[0,0.75,0],[0,0.5,0],[0,0.25,0]];shape=mxgraph.bpmn.task2;whiteSpace=wrap;rectStyle=rounded;size=10;html=1;container=1;expand=0;collapsible=0;taskMarker=user;fontSize=9;" parent="ewFTUpQ_ITNDuzYWQgGJ-5" vertex="1">
          <mxGeometry x="1011" y="55" width="100" height="65" as="geometry" />
        </mxCell>
        <mxCell id="ewFTUpQ_ITNDuzYWQgGJ-67" value="" style="edgeStyle=elbowEdgeStyle;fontSize=12;html=1;endArrow=blockThin;endFill=1;rounded=0;exitX=1;exitY=0.5;exitDx=0;exitDy=0;exitPerimeter=0;entryX=0;entryY=0.5;entryDx=0;entryDy=0;entryPerimeter=0;" parent="ewFTUpQ_ITNDuzYWQgGJ-5" source="ewFTUpQ_ITNDuzYWQgGJ-64" target="ewFTUpQ_ITNDuzYWQgGJ-66" edge="1">
          <mxGeometry width="160" relative="1" as="geometry">
            <mxPoint x="660" y="140" as="sourcePoint" />
            <mxPoint x="820" y="140" as="targetPoint" />
          </mxGeometry>
        </mxCell>
        <mxCell id="ewFTUpQ_ITNDuzYWQgGJ-75" value="&lt;font style=&quot;font-size: 9px;&quot;&gt;Ожидать&amp;nbsp;&lt;/font&gt;&lt;div&gt;&lt;font style=&quot;font-size: 9px;&quot;&gt;доставку&amp;nbsp;&lt;/font&gt;&lt;/div&gt;&lt;div&gt;&lt;font style=&quot;font-size: 9px;&quot;&gt;от логистики&lt;/font&gt;&lt;/div&gt;" style="points=[[0.145,0.145,0],[0.5,0,0],[0.855,0.145,0],[1,0.5,0],[0.855,0.855,0],[0.5,1,0],[0.145,0.855,0],[0,0.5,0]];shape=mxgraph.bpmn.event;html=1;verticalLabelPosition=bottom;labelBackgroundColor=#ffffff;verticalAlign=top;align=center;perimeter=ellipsePerimeter;outlineConnect=0;aspect=fixed;outline=catching;symbol=timer;" parent="ewFTUpQ_ITNDuzYWQgGJ-5" vertex="1">
          <mxGeometry x="624" y="61.5" width="50" height="50" as="geometry" />
        </mxCell>
        <mxCell id="ewFTUpQ_ITNDuzYWQgGJ-76" value="" style="edgeStyle=elbowEdgeStyle;fontSize=12;html=1;endArrow=blockThin;endFill=1;rounded=0;exitX=1;exitY=0.5;exitDx=0;exitDy=0;exitPerimeter=0;entryX=0;entryY=0.5;entryDx=0;entryDy=0;entryPerimeter=0;" parent="ewFTUpQ_ITNDuzYWQgGJ-5" source="ewFTUpQ_ITNDuzYWQgGJ-22" target="ewFTUpQ_ITNDuzYWQgGJ-75" edge="1">
          <mxGeometry width="160" relative="1" as="geometry">
            <mxPoint x="690" y="70" as="sourcePoint" />
            <mxPoint x="330" y="100" as="targetPoint" />
          </mxGeometry>
        </mxCell>
        <mxCell id="ewFTUpQ_ITNDuzYWQgGJ-77" value="" style="edgeStyle=elbowEdgeStyle;fontSize=12;html=1;endArrow=blockThin;endFill=1;rounded=0;exitX=1;exitY=0.5;exitDx=0;exitDy=0;exitPerimeter=0;entryX=0;entryY=0.5;entryDx=0;entryDy=0;entryPerimeter=0;" parent="ewFTUpQ_ITNDuzYWQgGJ-5" source="ewFTUpQ_ITNDuzYWQgGJ-75" target="ewFTUpQ_ITNDuzYWQgGJ-63" edge="1">
          <mxGeometry width="160" relative="1" as="geometry">
            <mxPoint x="690" y="70" as="sourcePoint" />
            <mxPoint x="850" y="70" as="targetPoint" />
          </mxGeometry>
        </mxCell>
        <mxCell id="ewFTUpQ_ITNDuzYWQgGJ-85" value="" style="points=[[0.145,0.145,0],[0.5,0,0],[0.855,0.145,0],[1,0.5,0],[0.855,0.855,0],[0.5,1,0],[0.145,0.855,0],[0,0.5,0]];shape=mxgraph.bpmn.event;html=1;verticalLabelPosition=bottom;labelBackgroundColor=#ffffff;verticalAlign=top;align=center;perimeter=ellipsePerimeter;outlineConnect=0;aspect=fixed;outline=end;symbol=terminate2;" parent="ewFTUpQ_ITNDuzYWQgGJ-5" vertex="1">
          <mxGeometry x="1210" y="62.5" width="50" height="50" as="geometry" />
        </mxCell>
        <mxCell id="ewFTUpQ_ITNDuzYWQgGJ-87" value="" style="edgeStyle=elbowEdgeStyle;fontSize=12;html=1;endArrow=blockThin;endFill=1;rounded=0;exitX=1;exitY=0.5;exitDx=0;exitDy=0;exitPerimeter=0;entryX=0;entryY=0.5;entryDx=0;entryDy=0;entryPerimeter=0;" parent="ewFTUpQ_ITNDuzYWQgGJ-5" source="ewFTUpQ_ITNDuzYWQgGJ-66" target="ewFTUpQ_ITNDuzYWQgGJ-85" edge="1">
          <mxGeometry width="160" relative="1" as="geometry">
            <mxPoint x="610" y="100" as="sourcePoint" />
            <mxPoint x="770" y="100" as="targetPoint" />
          </mxGeometry>
        </mxCell>
        <mxCell id="ewFTUpQ_ITNDuzYWQgGJ-94" value="&lt;font&gt;Принять заявку&amp;nbsp;&lt;/font&gt;&lt;div&gt;&lt;font&gt;в системе №1&lt;/font&gt;&lt;/div&gt;" style="points=[[0.25,0,0],[0.5,0,0],[0.75,0,0],[1,0.25,0],[1,0.5,0],[1,0.75,0],[0.75,1,0],[0.5,1,0],[0.25,1,0],[0,0.75,0],[0,0.5,0],[0,0.25,0]];shape=mxgraph.bpmn.task2;whiteSpace=wrap;rectStyle=rounded;size=10;html=1;container=1;expand=0;collapsible=0;taskMarker=user;fontSize=9;" parent="ewFTUpQ_ITNDuzYWQgGJ-5" vertex="1">
          <mxGeometry x="130" y="52" width="100" height="67.5" as="geometry" />
        </mxCell>
        <mxCell id="ewFTUpQ_ITNDuzYWQgGJ-95" value="" style="edgeStyle=elbowEdgeStyle;fontSize=12;html=1;endArrow=blockThin;endFill=1;rounded=0;exitX=1;exitY=0.5;exitDx=0;exitDy=0;exitPerimeter=0;entryX=0;entryY=0.5;entryDx=0;entryDy=0;entryPerimeter=0;" parent="ewFTUpQ_ITNDuzYWQgGJ-5" source="ewFTUpQ_ITNDuzYWQgGJ-14" target="ewFTUpQ_ITNDuzYWQgGJ-94" edge="1">
          <mxGeometry width="160" relative="1" as="geometry">
            <mxPoint x="450" y="260" as="sourcePoint" />
            <mxPoint x="610" y="260" as="targetPoint" />
          </mxGeometry>
        </mxCell>
        <mxCell id="ewFTUpQ_ITNDuzYWQgGJ-30" value="&lt;font&gt;Отправить номер&lt;/font&gt;&lt;div&gt;&lt;font&gt;обращения&amp;nbsp;&lt;/font&gt;&lt;/div&gt;&lt;div&gt;&lt;font&gt;пользователю&lt;/font&gt;&lt;/div&gt;" style="points=[[0.145,0.145,0],[0.5,0,0],[0.855,0.145,0],[1,0.5,0],[0.855,0.855,0],[0.5,1,0],[0.145,0.855,0],[0,0.5,0]];shape=mxgraph.bpmn.event;html=1;verticalLabelPosition=bottom;labelBackgroundColor=#ffffff;verticalAlign=top;align=center;perimeter=ellipsePerimeter;outlineConnect=0;aspect=fixed;outline=throwing;symbol=message;fontSize=9;" parent="ewFTUpQ_ITNDuzYWQgGJ-5" vertex="1">
          <mxGeometry x="294" y="60.5" width="50" height="50" as="geometry" />
        </mxCell>
        <mxCell id="ewFTUpQ_ITNDuzYWQgGJ-97" value="" style="edgeStyle=elbowEdgeStyle;fontSize=12;html=1;endArrow=blockThin;endFill=1;rounded=0;exitX=1;exitY=0.5;exitDx=0;exitDy=0;exitPerimeter=0;entryX=0;entryY=0.5;entryDx=0;entryDy=0;entryPerimeter=0;" parent="ewFTUpQ_ITNDuzYWQgGJ-5" source="ewFTUpQ_ITNDuzYWQgGJ-94" target="ewFTUpQ_ITNDuzYWQgGJ-30" edge="1">
          <mxGeometry width="160" relative="1" as="geometry">
            <mxPoint x="450" y="260" as="sourcePoint" />
            <mxPoint x="610" y="260" as="targetPoint" />
          </mxGeometry>
        </mxCell>
        <mxCell id="ewFTUpQ_ITNDuzYWQgGJ-100" value="Создать заявку&amp;nbsp;&lt;div&gt;в системе №2&lt;/div&gt;" style="points=[[0.25,0,0],[0.5,0,0],[0.75,0,0],[1,0.25,0],[1,0.5,0],[1,0.75,0],[0.75,1,0],[0.5,1,0],[0.25,1,0],[0,0.75,0],[0,0.5,0],[0,0.25,0]];shape=mxgraph.bpmn.task2;whiteSpace=wrap;rectStyle=rounded;size=10;html=1;container=1;expand=0;collapsible=0;taskMarker=user;fontSize=9;" parent="ewFTUpQ_ITNDuzYWQgGJ-5" vertex="1">
          <mxGeometry x="390" y="52" width="100" height="67.5" as="geometry" />
        </mxCell>
        <mxCell id="ewFTUpQ_ITNDuzYWQgGJ-101" value="" style="edgeStyle=elbowEdgeStyle;fontSize=12;html=1;endArrow=blockThin;endFill=1;rounded=0;exitX=1;exitY=0.5;exitDx=0;exitDy=0;exitPerimeter=0;entryX=0;entryY=0.5;entryDx=0;entryDy=0;entryPerimeter=0;" parent="ewFTUpQ_ITNDuzYWQgGJ-5" source="ewFTUpQ_ITNDuzYWQgGJ-30" target="ewFTUpQ_ITNDuzYWQgGJ-100" edge="1">
          <mxGeometry width="160" relative="1" as="geometry">
            <mxPoint x="620" y="270" as="sourcePoint" />
            <mxPoint x="780" y="270" as="targetPoint" />
          </mxGeometry>
        </mxCell>
        <mxCell id="ewFTUpQ_ITNDuzYWQgGJ-102" value="" style="edgeStyle=elbowEdgeStyle;fontSize=12;html=1;endArrow=blockThin;endFill=1;rounded=0;exitX=1;exitY=0.5;exitDx=0;exitDy=0;exitPerimeter=0;entryX=0;entryY=0.5;entryDx=0;entryDy=0;entryPerimeter=0;" parent="ewFTUpQ_ITNDuzYWQgGJ-5" source="ewFTUpQ_ITNDuzYWQgGJ-100" target="ewFTUpQ_ITNDuzYWQgGJ-22" edge="1">
          <mxGeometry width="160" relative="1" as="geometry">
            <mxPoint x="620" y="270" as="sourcePoint" />
            <mxPoint x="780" y="270" as="targetPoint" />
          </mxGeometry>
        </mxCell>
        <mxCell id="ewFTUpQ_ITNDuzYWQgGJ-83" value="" style="dashed=1;dashPattern=8 4;endArrow=blockThin;endFill=1;startArrow=oval;startFill=0;endSize=6;startSize=4;html=1;rounded=0;exitX=0.5;exitY=0;exitDx=0;exitDy=0;exitPerimeter=0;entryX=0.5;entryY=1;entryDx=0;entryDy=0;entryPerimeter=0;" parent="ewFTUpQ_ITNDuzYWQgGJ-1" source="ewFTUpQ_ITNDuzYWQgGJ-64" target="ewFTUpQ_ITNDuzYWQgGJ-68" edge="1">
          <mxGeometry width="160" relative="1" as="geometry">
            <mxPoint x="610" y="150" as="sourcePoint" />
            <mxPoint x="770" y="150" as="targetPoint" />
          </mxGeometry>
        </mxCell>
        <mxCell id="ewFTUpQ_ITNDuzYWQgGJ-99" value="" style="dashed=1;dashPattern=8 4;endArrow=blockThin;endFill=1;startArrow=oval;startFill=0;endSize=6;startSize=4;html=1;rounded=0;exitX=0.5;exitY=0;exitDx=0;exitDy=0;exitPerimeter=0;entryX=0.5;entryY=1;entryDx=0;entryDy=0;entryPerimeter=0;" parent="ewFTUpQ_ITNDuzYWQgGJ-1" source="ewFTUpQ_ITNDuzYWQgGJ-30" target="ewFTUpQ_ITNDuzYWQgGJ-32" edge="1">
          <mxGeometry width="160" relative="1" as="geometry">
            <mxPoint x="450" y="470" as="sourcePoint" />
            <mxPoint x="610" y="470" as="targetPoint" />
          </mxGeometry>
        </mxCell>
        <mxCell id="ewFTUpQ_ITNDuzYWQgGJ-3" value="Снабжение" style="swimlane;html=1;startSize=20;horizontal=0;fontSize=9;" parent="ewFTUpQ_ITNDuzYWQgGJ-1" vertex="1">
          <mxGeometry y="390" width="1520" height="440" as="geometry" />
        </mxCell>
        <mxCell id="ewFTUpQ_ITNDuzYWQgGJ-21" value="&lt;font&gt;Получить&amp;nbsp;&lt;/font&gt;&lt;div&gt;&lt;font&gt;уведомление&lt;/font&gt;&lt;/div&gt;" style="points=[[0.145,0.145,0],[0.5,0,0],[0.855,0.145,0],[1,0.5,0],[0.855,0.855,0],[0.5,1,0],[0.145,0.855,0],[0,0.5,0]];shape=mxgraph.bpmn.event;html=1;verticalLabelPosition=bottom;labelBackgroundColor=#ffffff;verticalAlign=top;align=center;perimeter=ellipsePerimeter;outlineConnect=0;aspect=fixed;outline=standard;symbol=message;fontSize=9;" parent="ewFTUpQ_ITNDuzYWQgGJ-3" vertex="1">
          <mxGeometry x="44" y="160" width="50" height="50" as="geometry" />
        </mxCell>
        <mxCell id="ewFTUpQ_ITNDuzYWQgGJ-25" value="&lt;font&gt;Принять заявку&amp;nbsp;&lt;/font&gt;&lt;div&gt;&lt;font&gt;в системе №2&lt;/font&gt;&lt;/div&gt;" style="points=[[0.25,0,0],[0.5,0,0],[0.75,0,0],[1,0.25,0],[1,0.5,0],[1,0.75,0],[0.75,1,0],[0.5,1,0],[0.25,1,0],[0,0.75,0],[0,0.5,0],[0,0.25,0]];shape=mxgraph.bpmn.task2;whiteSpace=wrap;rectStyle=rounded;size=10;html=1;container=1;expand=0;collapsible=0;taskMarker=user;fontSize=9;" parent="ewFTUpQ_ITNDuzYWQgGJ-3" vertex="1">
          <mxGeometry x="126.5" y="151.5" width="100" height="65" as="geometry" />
        </mxCell>
        <mxCell id="ewFTUpQ_ITNDuzYWQgGJ-27" value="" style="edgeStyle=elbowEdgeStyle;fontSize=9;html=1;endArrow=blockThin;endFill=1;rounded=0;exitX=1;exitY=0.5;exitDx=0;exitDy=0;exitPerimeter=0;entryX=0;entryY=0.5;entryDx=0;entryDy=0;entryPerimeter=0;" parent="ewFTUpQ_ITNDuzYWQgGJ-3" source="ewFTUpQ_ITNDuzYWQgGJ-21" target="ewFTUpQ_ITNDuzYWQgGJ-25" edge="1">
          <mxGeometry width="160" relative="1" as="geometry">
            <mxPoint x="140" y="-120" as="sourcePoint" />
            <mxPoint x="130" y="95" as="targetPoint" />
          </mxGeometry>
        </mxCell>
        <mxCell id="ewFTUpQ_ITNDuzYWQgGJ-40" value="&lt;font&gt;Запросить&amp;nbsp;&lt;/font&gt;&lt;div&gt;&lt;font&gt;наличие&amp;nbsp;&lt;/font&gt;&lt;div&gt;&lt;font&gt;оборудования&amp;nbsp;&lt;/font&gt;&lt;/div&gt;&lt;div&gt;&lt;font&gt;в системе №3&lt;/font&gt;&lt;/div&gt;&lt;/div&gt;" style="points=[[0.25,0,0],[0.5,0,0],[0.75,0,0],[1,0.25,0],[1,0.5,0],[1,0.75,0],[0.75,1,0],[0.5,1,0],[0.25,1,0],[0,0.75,0],[0,0.5,0],[0,0.25,0]];shape=mxgraph.bpmn.task2;whiteSpace=wrap;rectStyle=rounded;size=10;html=1;container=1;expand=0;collapsible=0;taskMarker=service;fontSize=9;" parent="ewFTUpQ_ITNDuzYWQgGJ-3" vertex="1">
          <mxGeometry x="260" y="150" width="103.5" height="70" as="geometry" />
        </mxCell>
        <mxCell id="ewFTUpQ_ITNDuzYWQgGJ-42" value="" style="points=[[0.25,0.25,0],[0.5,0,0],[0.75,0.25,0],[1,0.5,0],[0.75,0.75,0],[0.5,1,0],[0.25,0.75,0],[0,0.5,0]];shape=mxgraph.bpmn.gateway2;html=1;verticalLabelPosition=bottom;labelBackgroundColor=#ffffff;verticalAlign=top;align=center;perimeter=rhombusPerimeter;outlineConnect=0;outline=none;symbol=none;gwType=exclusive;fontSize=9;" parent="ewFTUpQ_ITNDuzYWQgGJ-3" vertex="1">
          <mxGeometry x="449" y="160" width="50" height="50" as="geometry" />
        </mxCell>
        <mxCell id="ewFTUpQ_ITNDuzYWQgGJ-43" value="" style="edgeStyle=elbowEdgeStyle;fontSize=9;html=1;endArrow=blockThin;endFill=1;rounded=0;exitX=1;exitY=0.5;exitDx=0;exitDy=0;exitPerimeter=0;entryX=0;entryY=0.5;entryDx=0;entryDy=0;entryPerimeter=0;elbow=horizontal;" parent="ewFTUpQ_ITNDuzYWQgGJ-3" source="ewFTUpQ_ITNDuzYWQgGJ-40" target="ewFTUpQ_ITNDuzYWQgGJ-42" edge="1">
          <mxGeometry width="160" relative="1" as="geometry">
            <mxPoint x="470" y="120" as="sourcePoint" />
            <mxPoint x="500" y="252" as="targetPoint" />
          </mxGeometry>
        </mxCell>
        <mxCell id="ewFTUpQ_ITNDuzYWQgGJ-45" value="&lt;font&gt;Оборудование&lt;/font&gt;&lt;div&gt;&lt;font&gt;есть&amp;nbsp;&lt;/font&gt;&lt;/div&gt;&lt;div&gt;&lt;font&gt;в системе №3&lt;/font&gt;&lt;font&gt;?&lt;/font&gt;&lt;/div&gt;" style="text;html=1;strokeColor=none;fillColor=none;align=center;verticalAlign=middle;whiteSpace=wrap;rounded=0;fontSize=9;" parent="ewFTUpQ_ITNDuzYWQgGJ-3" vertex="1">
          <mxGeometry x="368" y="151.5" width="80" height="30" as="geometry" />
        </mxCell>
        <mxCell id="ewFTUpQ_ITNDuzYWQgGJ-46" value="&lt;font&gt;Отправить&amp;nbsp;&lt;/font&gt;&lt;div&gt;&lt;font&gt;команду логистике&lt;/font&gt;&lt;/div&gt;&lt;div&gt;&lt;font&gt;&amp;nbsp;на доставку IT-оборудования&lt;/font&gt;&lt;/div&gt;" style="points=[[0.25,0,0],[0.5,0,0],[0.75,0,0],[1,0.25,0],[1,0.5,0],[1,0.75,0],[0.75,1,0],[0.5,1,0],[0.25,1,0],[0,0.75,0],[0,0.5,0],[0,0.25,0]];shape=mxgraph.bpmn.task2;whiteSpace=wrap;rectStyle=rounded;size=10;html=1;container=1;expand=0;collapsible=0;taskMarker=send;fontSize=9;" parent="ewFTUpQ_ITNDuzYWQgGJ-3" vertex="1">
          <mxGeometry x="1260" y="149" width="110" height="70" as="geometry" />
        </mxCell>
        <mxCell id="ewFTUpQ_ITNDuzYWQgGJ-47" value="&lt;font&gt;Сформировать&amp;nbsp;&lt;/font&gt;&lt;div&gt;&lt;font&gt;заявку поставщику&lt;/font&gt;&lt;/div&gt;" style="points=[[0.25,0,0],[0.5,0,0],[0.75,0,0],[1,0.25,0],[1,0.5,0],[1,0.75,0],[0.75,1,0],[0.5,1,0],[0.25,1,0],[0,0.75,0],[0,0.5,0],[0,0.25,0]];shape=mxgraph.bpmn.task2;whiteSpace=wrap;rectStyle=rounded;size=10;html=1;container=1;expand=0;collapsible=0;taskMarker=manual;fontSize=9;" parent="ewFTUpQ_ITNDuzYWQgGJ-3" vertex="1">
          <mxGeometry x="520" y="230" width="110" height="70" as="geometry" />
        </mxCell>
        <mxCell id="ewFTUpQ_ITNDuzYWQgGJ-49" value="" style="edgeStyle=elbowEdgeStyle;fontSize=9;html=1;endArrow=blockThin;endFill=1;rounded=0;exitX=0.5;exitY=1;exitDx=0;exitDy=0;exitPerimeter=0;entryX=0;entryY=0.5;entryDx=0;entryDy=0;entryPerimeter=0;" parent="ewFTUpQ_ITNDuzYWQgGJ-3" source="ewFTUpQ_ITNDuzYWQgGJ-42" target="ewFTUpQ_ITNDuzYWQgGJ-47" edge="1">
          <mxGeometry width="160" relative="1" as="geometry">
            <mxPoint x="470" y="90" as="sourcePoint" />
            <mxPoint x="630" y="90" as="targetPoint" />
            <Array as="points">
              <mxPoint x="474" y="230" />
            </Array>
          </mxGeometry>
        </mxCell>
        <mxCell id="ewFTUpQ_ITNDuzYWQgGJ-50" value="&lt;font&gt;Ожидать&amp;nbsp;&lt;/font&gt;&lt;div&gt;&lt;font&gt;доставку от&amp;nbsp;&lt;/font&gt;&lt;/div&gt;&lt;div&gt;&lt;font&gt;постащика&lt;/font&gt;&lt;/div&gt;" style="points=[[0.145,0.145,0],[0.5,0,0],[0.855,0.145,0],[1,0.5,0],[0.855,0.855,0],[0.5,1,0],[0.145,0.855,0],[0,0.5,0]];shape=mxgraph.bpmn.event;html=1;verticalLabelPosition=bottom;labelBackgroundColor=#ffffff;verticalAlign=top;align=center;perimeter=ellipsePerimeter;outlineConnect=0;aspect=fixed;outline=catching;symbol=timer;fontSize=9;" parent="ewFTUpQ_ITNDuzYWQgGJ-3" vertex="1">
          <mxGeometry x="670" y="240" width="50" height="50" as="geometry" />
        </mxCell>
        <mxCell id="ewFTUpQ_ITNDuzYWQgGJ-51" value="" style="edgeStyle=elbowEdgeStyle;fontSize=9;html=1;endArrow=blockThin;endFill=1;rounded=0;exitX=1;exitY=0.5;exitDx=0;exitDy=0;exitPerimeter=0;entryX=0;entryY=0.5;entryDx=0;entryDy=0;entryPerimeter=0;" parent="ewFTUpQ_ITNDuzYWQgGJ-3" source="ewFTUpQ_ITNDuzYWQgGJ-47" target="ewFTUpQ_ITNDuzYWQgGJ-50" edge="1">
          <mxGeometry width="160" relative="1" as="geometry">
            <mxPoint x="470" y="90" as="sourcePoint" />
            <mxPoint x="630" y="90" as="targetPoint" />
          </mxGeometry>
        </mxCell>
        <mxCell id="ewFTUpQ_ITNDuzYWQgGJ-53" value="&lt;font&gt;Зарегистрировать поступление в ЛК&lt;/font&gt;" style="points=[[0.25,0,0],[0.5,0,0],[0.75,0,0],[1,0.25,0],[1,0.5,0],[1,0.75,0],[0.75,1,0],[0.5,1,0],[0.25,1,0],[0,0.75,0],[0,0.5,0],[0,0.25,0]];shape=mxgraph.bpmn.task2;whiteSpace=wrap;rectStyle=rounded;size=10;html=1;container=1;expand=0;collapsible=0;taskMarker=user;fontSize=9;" parent="ewFTUpQ_ITNDuzYWQgGJ-3" vertex="1">
          <mxGeometry x="880" y="230" width="100" height="70" as="geometry" />
        </mxCell>
        <mxCell id="ewFTUpQ_ITNDuzYWQgGJ-52" value="&lt;font&gt;Система №3 обновляет остатки&lt;/font&gt;" style="points=[[0.25,0,0],[0.5,0,0],[0.75,0,0],[1,0.25,0],[1,0.5,0],[1,0.75,0],[0.75,1,0],[0.5,1,0],[0.25,1,0],[0,0.75,0],[0,0.5,0],[0,0.25,0]];shape=mxgraph.bpmn.task2;whiteSpace=wrap;rectStyle=rounded;size=10;html=1;container=1;expand=0;collapsible=0;taskMarker=service;fontSize=9;" parent="ewFTUpQ_ITNDuzYWQgGJ-3" vertex="1">
          <mxGeometry x="1010" y="230" width="103.5" height="70" as="geometry" />
        </mxCell>
        <mxCell id="ewFTUpQ_ITNDuzYWQgGJ-55" value="" style="edgeStyle=elbowEdgeStyle;fontSize=9;html=1;endArrow=blockThin;endFill=1;rounded=0;exitX=1;exitY=0.5;exitDx=0;exitDy=0;exitPerimeter=0;entryX=0;entryY=0.5;entryDx=0;entryDy=0;entryPerimeter=0;" parent="ewFTUpQ_ITNDuzYWQgGJ-3" source="ewFTUpQ_ITNDuzYWQgGJ-53" target="ewFTUpQ_ITNDuzYWQgGJ-52" edge="1">
          <mxGeometry width="160" relative="1" as="geometry">
            <mxPoint x="720" y="210" as="sourcePoint" />
            <mxPoint x="880" y="210" as="targetPoint" />
          </mxGeometry>
        </mxCell>
        <mxCell id="ewFTUpQ_ITNDuzYWQgGJ-57" value="&lt;font&gt;Нет&lt;/font&gt;" style="text;html=1;strokeColor=none;fillColor=none;align=center;verticalAlign=middle;whiteSpace=wrap;rounded=0;rotation=-90;fontSize=9;" parent="ewFTUpQ_ITNDuzYWQgGJ-3" vertex="1">
          <mxGeometry x="427" y="216.5" width="80" height="30" as="geometry" />
        </mxCell>
        <mxCell id="ewFTUpQ_ITNDuzYWQgGJ-58" value="" style="points=[[0.25,0.25,0],[0.5,0,0],[0.75,0.25,0],[1,0.5,0],[0.75,0.75,0],[0.5,1,0],[0.25,0.75,0],[0,0.5,0]];shape=mxgraph.bpmn.gateway2;html=1;verticalLabelPosition=bottom;labelBackgroundColor=#ffffff;verticalAlign=top;align=center;perimeter=rhombusPerimeter;outlineConnect=0;outline=none;symbol=none;gwType=exclusive;fontSize=9;" parent="ewFTUpQ_ITNDuzYWQgGJ-3" vertex="1">
          <mxGeometry x="1150" y="159" width="50" height="50" as="geometry" />
        </mxCell>
        <mxCell id="ewFTUpQ_ITNDuzYWQgGJ-59" value="" style="edgeStyle=elbowEdgeStyle;fontSize=9;html=1;endArrow=blockThin;endFill=1;rounded=0;exitX=0.5;exitY=0;exitDx=0;exitDy=0;exitPerimeter=0;entryX=0.5;entryY=0;entryDx=0;entryDy=0;entryPerimeter=0;" parent="ewFTUpQ_ITNDuzYWQgGJ-3" source="ewFTUpQ_ITNDuzYWQgGJ-42" target="ewFTUpQ_ITNDuzYWQgGJ-58" edge="1">
          <mxGeometry width="160" relative="1" as="geometry">
            <mxPoint x="720" y="210" as="sourcePoint" />
            <mxPoint x="880" y="210" as="targetPoint" />
            <Array as="points">
              <mxPoint x="830" y="90" />
            </Array>
          </mxGeometry>
        </mxCell>
        <mxCell id="ewFTUpQ_ITNDuzYWQgGJ-60" value="" style="edgeStyle=elbowEdgeStyle;fontSize=9;html=1;endArrow=blockThin;endFill=1;rounded=0;exitX=1;exitY=0.5;exitDx=0;exitDy=0;exitPerimeter=0;entryX=0.5;entryY=1;entryDx=0;entryDy=0;entryPerimeter=0;" parent="ewFTUpQ_ITNDuzYWQgGJ-3" source="ewFTUpQ_ITNDuzYWQgGJ-52" target="ewFTUpQ_ITNDuzYWQgGJ-58" edge="1">
          <mxGeometry width="160" relative="1" as="geometry">
            <mxPoint x="720" y="210" as="sourcePoint" />
            <mxPoint x="880" y="210" as="targetPoint" />
            <Array as="points">
              <mxPoint x="1175" y="240" />
            </Array>
          </mxGeometry>
        </mxCell>
        <mxCell id="ewFTUpQ_ITNDuzYWQgGJ-61" value="" style="edgeStyle=elbowEdgeStyle;fontSize=9;html=1;endArrow=blockThin;endFill=1;rounded=0;exitX=1;exitY=0.5;exitDx=0;exitDy=0;exitPerimeter=0;entryX=0;entryY=0.5;entryDx=0;entryDy=0;entryPerimeter=0;" parent="ewFTUpQ_ITNDuzYWQgGJ-3" source="ewFTUpQ_ITNDuzYWQgGJ-58" target="ewFTUpQ_ITNDuzYWQgGJ-46" edge="1">
          <mxGeometry width="160" relative="1" as="geometry">
            <mxPoint x="720" y="210" as="sourcePoint" />
            <mxPoint x="880" y="210" as="targetPoint" />
          </mxGeometry>
        </mxCell>
        <mxCell id="ewFTUpQ_ITNDuzYWQgGJ-62" value="&lt;font&gt;Да&lt;/font&gt;" style="text;html=1;strokeColor=none;fillColor=none;align=center;verticalAlign=middle;whiteSpace=wrap;rounded=0;rotation=-90;fontSize=9;" parent="ewFTUpQ_ITNDuzYWQgGJ-3" vertex="1">
          <mxGeometry x="427" y="120" width="80" height="30" as="geometry" />
        </mxCell>
        <mxCell id="ewFTUpQ_ITNDuzYWQgGJ-81" value="" style="points=[[0.145,0.145,0],[0.5,0,0],[0.855,0.145,0],[1,0.5,0],[0.855,0.855,0],[0.5,1,0],[0.145,0.855,0],[0,0.5,0]];shape=mxgraph.bpmn.event;html=1;verticalLabelPosition=bottom;labelBackgroundColor=#ffffff;verticalAlign=top;align=center;perimeter=ellipsePerimeter;outlineConnect=0;aspect=fixed;outline=end;symbol=terminate2;" parent="ewFTUpQ_ITNDuzYWQgGJ-3" vertex="1">
          <mxGeometry x="1410" y="159" width="50" height="50" as="geometry" />
        </mxCell>
        <mxCell id="ewFTUpQ_ITNDuzYWQgGJ-92" value="" style="edgeStyle=elbowEdgeStyle;fontSize=12;html=1;endArrow=blockThin;endFill=1;rounded=0;exitX=1;exitY=0.5;exitDx=0;exitDy=0;exitPerimeter=0;entryX=0;entryY=0.5;entryDx=0;entryDy=0;entryPerimeter=0;" parent="ewFTUpQ_ITNDuzYWQgGJ-3" source="ewFTUpQ_ITNDuzYWQgGJ-25" target="ewFTUpQ_ITNDuzYWQgGJ-40" edge="1">
          <mxGeometry width="160" relative="1" as="geometry">
            <mxPoint x="580" y="80" as="sourcePoint" />
            <mxPoint x="740" y="80" as="targetPoint" />
          </mxGeometry>
        </mxCell>
        <mxCell id="ewFTUpQ_ITNDuzYWQgGJ-93" value="" style="edgeStyle=elbowEdgeStyle;fontSize=12;html=1;endArrow=blockThin;endFill=1;rounded=0;exitX=1;exitY=0.5;exitDx=0;exitDy=0;exitPerimeter=0;entryX=0;entryY=0.5;entryDx=0;entryDy=0;entryPerimeter=0;" parent="ewFTUpQ_ITNDuzYWQgGJ-3" source="ewFTUpQ_ITNDuzYWQgGJ-46" target="ewFTUpQ_ITNDuzYWQgGJ-81" edge="1">
          <mxGeometry width="160" relative="1" as="geometry">
            <mxPoint x="1180" y="80" as="sourcePoint" />
            <mxPoint x="1340" y="80" as="targetPoint" />
          </mxGeometry>
        </mxCell>
        <mxCell id="ewFTUpQ_ITNDuzYWQgGJ-113" value="&lt;font&gt;Получить&amp;nbsp;&lt;/font&gt;&lt;div&gt;&lt;font&gt;доставку от поставщика&lt;/font&gt;&lt;/div&gt;" style="points=[[0.25,0,0],[0.5,0,0],[0.75,0,0],[1,0.25,0],[1,0.5,0],[1,0.75,0],[0.75,1,0],[0.5,1,0],[0.25,1,0],[0,0.75,0],[0,0.5,0],[0,0.25,0]];shape=mxgraph.bpmn.task2;whiteSpace=wrap;rectStyle=rounded;size=10;html=1;container=1;expand=0;collapsible=0;taskMarker=abstract;fontSize=9;" parent="ewFTUpQ_ITNDuzYWQgGJ-3" vertex="1">
          <mxGeometry x="750" y="230" width="100" height="70" as="geometry" />
        </mxCell>
        <mxCell id="ewFTUpQ_ITNDuzYWQgGJ-114" value="" style="edgeStyle=elbowEdgeStyle;fontSize=12;html=1;endArrow=blockThin;endFill=1;rounded=0;exitX=1;exitY=0.5;exitDx=0;exitDy=0;exitPerimeter=0;entryX=0;entryY=0.5;entryDx=0;entryDy=0;entryPerimeter=0;" parent="ewFTUpQ_ITNDuzYWQgGJ-3" source="ewFTUpQ_ITNDuzYWQgGJ-50" target="ewFTUpQ_ITNDuzYWQgGJ-113" edge="1">
          <mxGeometry width="160" relative="1" as="geometry">
            <mxPoint x="1080" y="160" as="sourcePoint" />
            <mxPoint x="1240" y="160" as="targetPoint" />
          </mxGeometry>
        </mxCell>
        <mxCell id="ewFTUpQ_ITNDuzYWQgGJ-115" value="" style="edgeStyle=elbowEdgeStyle;fontSize=12;html=1;endArrow=blockThin;endFill=1;rounded=0;exitX=1;exitY=0.5;exitDx=0;exitDy=0;exitPerimeter=0;entryX=0;entryY=0.5;entryDx=0;entryDy=0;entryPerimeter=0;" parent="ewFTUpQ_ITNDuzYWQgGJ-3" source="ewFTUpQ_ITNDuzYWQgGJ-113" target="ewFTUpQ_ITNDuzYWQgGJ-53" edge="1">
          <mxGeometry width="160" relative="1" as="geometry">
            <mxPoint x="1080" y="160" as="sourcePoint" />
            <mxPoint x="1240" y="160" as="targetPoint" />
          </mxGeometry>
        </mxCell>
      </root>
    </mxGraphModel>
  </diagram>
</mxfile>
